Coordinates
version=1
nRows=5
nColumns=42
inDegrees=yes

Units are S.I. units (second, meters, Newtons, ...)
If the header above contains a line with 'inDegrees', this indicates whether rotational values are in degrees (yes) or radians (no).

endheader
time	pelvis_tilt	pelvis_list	pelvis_rotation	pelvis_tx	pelvis_ty	pelvis_tz	hip_flexion_r	hip_adduction_r	hip_rotation_r	knee_angle_r	knee_adduction_r	knee_angle_r_beta	ankle_angle_r	subtalar_angle_r	mtp_angle_r	hip_flexion_l	hip_adduction_l	hip_rotation_l	knee_angle_l	knee_adduction_l	knee_angle_l_beta	ankle_angle_l	subtalar_angle_l	mtp_angle_l	lumbar_extension	lumbar_bending	lumbar_rotation	arm_flex_r	arm_add_r	arm_rot_r	elbow_flex_r	pro_sup_r	wrist_flex_r	wrist_dev_r	arm_flex_l	arm_add_l	arm_rot_l	elbow_flex_l	pro_sup_l	wrist_flex_l	wrist_dev_l
      0.72000000	      7.15158094	     -0.92578412	     -2.77359446	     -1.91316382	      0.88515079	      0.20003019	     -7.63501093	      7.48863062	    -21.30077292	     12.12313848	     -7.41358624	      0.21158868	     18.17744523	     26.86057288	     -7.58976860	     20.44247026	     -1.04376777	     -2.16111514	     54.87189576	      0.82960956	      0.95769525	      9.55688621	    -15.33468828	     -7.58976860	    -22.43644924	      0.58170474	      9.74396121	     15.16847036	    -24.86873201	     20.03657210	     48.92154478	     90.00000001	      0.00000000	      0.00000000	      0.89249488	    -17.61105239	     29.23001496	     33.79042923	     90.00000001	      0.00000000	      0.00000000
      0.73000000	      7.29050413	     -0.95174755	     -3.10410629	     -1.90117582	      0.88444272	      0.20149092	     -8.98468135	      7.51738736	    -21.18822308	     11.58756179	     -7.29847266	      0.20224111	     18.61467620	     27.44359540	     -7.58628859	     20.84122931	     -0.94385591	     -2.65653002	     51.39240486	      0.62899149	      0.89696668	      9.54079770	    -15.00529633	     -7.58628859	    -22.60685653	      0.52443401	     10.11660677	     15.92997136	    -25.21059519	     19.98256653	     49.82589266	     90.00000001	      0.00000000	      0.00000000	     -0.21753117	    -17.44961422	     29.36744803	     33.65927785	     90.00000001	      0.00000000	      0.00000000
      0.74000000	      6.85441335	     -1.36666708	     -3.17929760	     -1.88963374	      0.88230331	      0.20283303	     -9.40706081	      8.15537317	    -21.27310179	     11.50288208	     -7.46658703	      0.20076317	     18.90631991	     27.25544333	     -7.58495300	     22.15661965	     -1.32006868	     -3.00143142	     48.34859562	      0.33002487	      0.84384218	      9.53912675	    -14.45956250	     -7.58495300	    -22.18389256	      0.97632356	     10.43800869	     16.65590461	    -25.46367598	     19.82856306	     50.46502924	     90.00000001	      0.00000000	      0.00000000	     -1.38971442	    -17.25733623	     29.47385893	     33.58286346	     90.00000001	      0.00000000	      0.00000000
      0.75000000	      7.56242207	     -1.05491858	     -3.55396825	     -1.87729378	      0.88231950	      0.20387583	    -11.47611543	      7.58511060	    -21.11007513	     10.90544795	     -7.08428691	      0.19033597	     19.38617448	     28.12032941	     -7.58129279	     21.26690704	     -0.62745266	     -4.06584097	     43.68101916	     -0.38480379	      0.76237760	      9.30783606	    -13.89384777	     -7.58129279	    -22.99411656	      0.51039341	     10.68010651	     17.52143996	    -25.82904212	     19.96617635	     51.38128562	     90.00000001	      0.00000000	      0.00000000	     -2.37961861	    -17.09735983	     29.45559142	     33.56665681	     90.00000001	      0.00000000	      0.00000000
      0.76000000	      7.61091816	     -1.17286795	     -3.73442087	     -1.86534307	      0.88080642	      0.20487966	    -12.47147504	      7.68689949	    -21.04032045	     10.87144830	     -7.06132230	      0.18974257	     19.91984399	     28.30562473	     -7.57833539	     21.36595452	     -0.51495938	     -4.69613714	     39.53362838	     -0.87173403	      0.68999198	      9.27707953	    -12.95215502	     -7.57833539	    -23.08126102	      0.60766291	     10.92924397	     18.29025487	    -26.10001722	     19.99710289	     52.03220403	     90.00000001	      0.00000000	      0.00000000	     -3.43800377	    -16.88768730	     29.42862942	     33.49263389	     90.00000001	      0.00000000	      0.00000000
